<?xml version="1.0" encoding="utf-8"?>
<!-- Generator: Adobe Illustrator 15.1.0, SVG Export Plug-In . SVG Version: 6.00 Build 0)  -->
<!DOCTYPE svg PUBLIC "-//W3C//DTD SVG 1.1//EN" "http://www.w3.org/Graphics/SVG/1.1/DTD/svg11.dtd">
<svg version="1.1" id="Layer_1" xmlns="http://www.w3.org/2000/svg" xmlns:xlink="http://www.w3.org/1999/xlink" x="0px" y="0px"
	 width="80px" height="15px" viewBox="0 0 80 15" enable-background="new 0 0 80 15" xml:space="preserve">
<g>
	<path fill="#FFFFFF" d="M79.664,13.225c0,0.795-0.643,1.438-1.438,1.438H1.774c-0.795,0-1.44-0.643-1.44-1.438V1.771
		c0-0.793,0.645-1.438,1.44-1.438h76.453c0.795,0,1.438,0.645,1.438,1.438L79.664,13.225L79.664,13.225z"/>
	<path fill="#A6A6A6" d="M78.227,14.996H1.774C0.796,14.996,0,14.202,0,13.225V1.772C0,0.795,0.796,0,1.774,0h76.453
		C79.203,0,80,0.795,80,1.772v11.453C80,14.202,79.203,14.996,78.227,14.996L78.227,14.996z"/>
	<path fill="#010101" d="M79.664,13.225c0,0.795-0.643,1.438-1.438,1.438H1.774c-0.795,0-1.44-0.643-1.44-1.438V1.771
		c0-0.793,0.645-1.438,1.44-1.438h76.453c0.795,0,1.438,0.645,1.438,1.438L79.664,13.225L79.664,13.225z"/>
	<g>
		<path fill="#FFFFFF" d="M15.492,10.852h-1.149L14.19,7.767c-0.072-1.393-0.105-2.429-0.098-3.107h-0.033
			c-0.233,0.868-0.521,1.798-0.864,2.79l-1.149,3.338H11.15l-1.051-3.283C9.786,6.513,9.531,5.565,9.333,4.66H9.311
			C9.273,5.768,9.229,6.822,9.179,7.821l-0.175,3.031H7.898L8.39,3.477h1.521l1.062,3.195c0.262,0.788,0.492,1.635,0.688,2.539
			h0.033c0.233-0.941,0.481-1.787,0.744-2.539l1.104-3.195h1.521L15.492,10.852z"/>
		<path fill="#FFFFFF" d="M20.678,10.852h-1.061l-0.088-0.611h-0.033c-0.364,0.488-0.883,0.732-1.554,0.732
			c-0.503,0-0.908-0.16-1.214-0.48c-0.277-0.292-0.416-0.653-0.416-1.083c0-0.649,0.271-1.146,0.815-1.488
			c0.543-0.343,1.307-0.511,2.292-0.503v-0.1c0-0.7-0.368-1.05-1.105-1.05c-0.525,0-0.988,0.131-1.39,0.394l-0.24-0.777
			c0.496-0.307,1.104-0.459,1.827-0.459c1.393,0,2.09,0.733,2.09,2.199v1.958C20.602,10.115,20.627,10.539,20.678,10.852z
			 M19.452,9.025V8.204c-1.306-0.022-1.958,0.336-1.958,1.071c0,0.277,0.076,0.485,0.229,0.625c0.153,0.139,0.345,0.207,0.576,0.207
			c0.262,0,0.503-0.082,0.724-0.246c0.222-0.164,0.357-0.373,0.408-0.629C19.445,9.174,19.452,9.105,19.452,9.025z"/>
		<path fill="#FFFFFF" d="M25.646,5.677l-0.23,0.897c-0.299-0.146-0.642-0.219-1.028-0.219c-0.518,0-0.928,0.173-1.23,0.52
			c-0.303,0.346-0.454,0.786-0.454,1.318c0,0.562,0.158,1.006,0.476,1.334c0.317,0.328,0.721,0.492,1.209,0.492
			c0.365,0,0.723-0.072,1.072-0.219l0.164,0.887c-0.387,0.183-0.875,0.272-1.466,0.272c-0.81,0-1.455-0.246-1.937-0.737
			c-0.482-0.492-0.723-1.15-0.723-1.976s0.259-1.5,0.777-2.03c0.518-0.529,1.214-0.793,2.09-0.793
			C24.861,5.425,25.288,5.509,25.646,5.677z"/>
		<path fill="#FFFFFF" d="M34.388,10.852h-1.259L32.44,8.686h-2.396l-0.656,2.166h-1.226l2.374-7.374h1.466L34.388,10.852z
			 M32.232,7.777l-0.624-1.925c-0.065-0.197-0.189-0.66-0.372-1.39h-0.021c-0.073,0.313-0.19,0.777-0.351,1.39l-0.612,1.925H32.232z
			"/>
		<path fill="#FFFFFF" d="M40.48,8.127c0,0.905-0.245,1.62-0.736,2.145c-0.44,0.469-0.987,0.701-1.64,0.701
			c-0.704,0-1.211-0.252-1.519-0.756v2.791h-1.182V7.283c0-0.568-0.015-1.151-0.044-1.748h1.039l0.066,0.842h0.021
			c0.394-0.634,0.992-0.952,1.794-0.952c0.628,0,1.151,0.248,1.57,0.744C40.271,6.666,40.48,7.318,40.48,8.127z M39.277,8.172
			c0-0.518-0.117-0.945-0.35-1.281c-0.256-0.35-0.599-0.525-1.029-0.525c-0.291,0-0.556,0.097-0.793,0.29
			c-0.237,0.193-0.393,0.447-0.465,0.76c-0.037,0.146-0.055,0.266-0.055,0.361v0.887c0,0.387,0.118,0.713,0.355,0.979
			c0.237,0.268,0.545,0.4,0.925,0.4c0.444,0,0.791-0.172,1.039-0.516C39.152,9.186,39.277,8.732,39.277,8.172z"/>
		<path fill="#FFFFFF" d="M46.598,8.127c0,0.905-0.246,1.62-0.736,2.145c-0.44,0.469-0.987,0.701-1.641,0.701
			c-0.703,0-1.211-0.252-1.519-0.756v2.791H41.52V7.283c0-0.568-0.015-1.151-0.043-1.748h1.039l0.065,0.842h0.021
			c0.395-0.634,0.992-0.952,1.795-0.952c0.627,0,1.15,0.248,1.569,0.744C46.389,6.666,46.598,7.318,46.598,8.127z M45.395,8.172
			c0-0.518-0.117-0.945-0.351-1.281c-0.256-0.35-0.599-0.525-1.028-0.525c-0.291,0-0.557,0.097-0.793,0.29
			c-0.238,0.193-0.394,0.447-0.466,0.76c-0.036,0.146-0.055,0.266-0.055,0.361v0.887c0,0.387,0.118,0.713,0.354,0.979
			c0.237,0.268,0.545,0.4,0.926,0.4c0.443,0,0.791-0.172,1.039-0.516C45.27,9.186,45.395,8.732,45.395,8.172z"/>
		<path fill="#FFFFFF" d="M53.436,8.784c0,0.628-0.218,1.138-0.653,1.532c-0.48,0.43-1.15,0.645-2.009,0.645
			c-0.793,0-1.431-0.152-1.91-0.459l0.273-0.984c0.518,0.308,1.086,0.459,1.706,0.459c0.445,0,0.791-0.1,1.039-0.301
			s0.372-0.469,0.372-0.805c0-0.299-0.102-0.551-0.306-0.754c-0.205-0.205-0.544-0.395-1.019-0.569
			c-1.291-0.481-1.937-1.186-1.937-2.112c0-0.605,0.228-1.101,0.684-1.488c0.456-0.387,1.06-0.58,1.812-0.58
			c0.671,0,1.229,0.117,1.674,0.35l-0.296,0.963c-0.418-0.226-0.89-0.339-1.417-0.339c-0.417,0-0.743,0.103-0.979,0.307
			c-0.197,0.182-0.296,0.405-0.296,0.667c0,0.292,0.112,0.532,0.339,0.722c0.197,0.175,0.555,0.365,1.072,0.569
			c0.635,0.255,1.102,0.554,1.4,0.897C53.286,7.847,53.436,8.273,53.436,8.784z"/>
		<path fill="#FFFFFF" d="M57.354,6.421h-1.303v2.582c0,0.657,0.229,0.985,0.689,0.985c0.211,0,0.386-0.02,0.523-0.055l0.033,0.896
			c-0.232,0.088-0.54,0.131-0.919,0.131c-0.467,0-0.832-0.142-1.095-0.426c-0.262-0.285-0.395-0.763-0.395-1.435V6.421h-0.775V5.535
			h0.775V4.561l1.16-0.351v1.324h1.303v0.887H57.354z"/>
		<path fill="#FFFFFF" d="M63.217,8.148c0,0.817-0.232,1.488-0.699,2.014c-0.488,0.541-1.139,0.811-1.947,0.811
			c-0.78,0-1.402-0.26-1.865-0.777c-0.464-0.518-0.695-1.17-0.695-1.957c0-0.824,0.239-1.499,0.717-2.024
			c0.479-0.525,1.123-0.788,1.933-0.788c0.78,0,1.407,0.259,1.882,0.777C62.991,6.705,63.217,7.354,63.217,8.148z M61.992,8.177
			c0-0.487-0.105-0.905-0.317-1.254C61.427,6.5,61.072,6.29,60.613,6.29c-0.475,0-0.836,0.211-1.084,0.633
			c-0.211,0.349-0.316,0.774-0.316,1.277c0,0.485,0.105,0.905,0.316,1.254c0.256,0.422,0.613,0.633,1.072,0.633
			c0.453,0,0.807-0.215,1.062-0.644C61.883,9.086,61.992,8.664,61.992,8.177z"/>
		<path fill="#FFFFFF" d="M67.057,6.574c-0.115-0.022-0.24-0.033-0.371-0.033c-0.416,0-0.736,0.157-0.963,0.471
			c-0.197,0.277-0.296,0.627-0.296,1.05v2.789h-1.182V7.208c0-0.613-0.011-1.17-0.033-1.674h1.028l0.044,1.018h0.032
			c0.125-0.35,0.32-0.631,0.592-0.843c0.263-0.189,0.547-0.284,0.854-0.284c0.109,0,0.209,0.007,0.295,0.022V6.574z"/>
		<path fill="#FFFFFF" d="M72.342,7.942c0,0.21-0.015,0.39-0.043,0.537h-3.545c0.014,0.524,0.186,0.927,0.514,1.203
			c0.299,0.248,0.687,0.371,1.16,0.371c0.525,0,1.004-0.083,1.434-0.251l0.187,0.82c-0.503,0.22-1.098,0.329-1.782,0.329
			c-0.824,0-1.473-0.243-1.942-0.729c-0.472-0.484-0.706-1.137-0.706-1.953c0-0.803,0.219-1.47,0.656-2.002
			c0.459-0.569,1.08-0.854,1.859-0.854c0.768,0,1.346,0.285,1.74,0.854C72.186,6.72,72.342,7.278,72.342,7.942z M71.215,7.635
			c0.008-0.35-0.068-0.653-0.229-0.908c-0.204-0.328-0.519-0.492-0.94-0.492c-0.387,0-0.7,0.161-0.94,0.481
			c-0.197,0.255-0.313,0.562-0.351,0.919H71.215z"/>
	</g>
</g>
</svg>
